<svg width="50" height="50" viewBox="0 0 50 50" fill="none" xmlns="http://www.w3.org/2000/svg">
<path d="M45.7452 34.2119L36.12 29.8055C35.7088 29.6184 35.2519 29.5789 34.8179 29.6931C34.3839 29.8074 33.9964 30.0691 33.7137 30.4389L29.4512 36.0019C22.7614 32.6327 17.3778 26.882 14.2236 19.7362L19.4315 15.183C19.7785 14.8816 20.024 14.4676 20.131 14.0038C20.238 13.5401 20.2006 13.0517 20.0245 12.6126L15.8994 2.33116C15.7062 1.85786 15.3644 1.47142 14.9329 1.23849C14.5015 1.00555 14.0075 0.940716 13.5361 1.05516L4.59847 3.25833C4.14399 3.37043 3.73851 3.64377 3.4482 4.03374C3.15789 4.4237 2.9999 4.90726 3 5.4055C3 28.9518 20.8667 48 42.8757 48C43.3423 48.0003 43.7952 47.8316 44.1604 47.5215C44.5257 47.2114 44.7817 46.7782 44.8867 46.2925L46.9492 36.7455C47.0557 36.2395 46.9937 35.7097 46.7739 35.2473C46.5542 34.7849 46.1904 34.4187 45.7452 34.2119Z" fill="#02275D"/>
</svg>
