<svg width="50" height="50" viewBox="0 0 50 50" fill="none" xmlns="http://www.w3.org/2000/svg">
<path d="M27.625 47.4888H9.625C8.797 47.4888 8.125 46.586 8.125 45.4737V4.52814C8.125 3.28284 8.9575 2.33578 9.871 2.54131L26.371 5.90038C27.094 6.06158 27.625 6.90387 27.625 7.88721V47.4888Z" fill="white"/>
<path d="M40.3752 47.4892H27.6252V20.2861L40.7007 23.9656C41.3877 24.1711 41.8752 24.9872 41.8752 25.9323V45.4741C41.8752 46.5864 41.2032 47.4892 40.3752 47.4892Z" fill="#02275D"/>
<path d="M21.625 46.9847H14.875V38.4208C14.875 37.3085 15.547 36.4058 16.375 36.4058H20.125C20.953 36.4058 21.625 37.3085 21.625 38.4208V46.9847Z" fill="#02275D"/>
<path d="M27.6252 20.2861V47.4892H31.0002V21.2352L27.6252 20.2861Z" fill="#02275D"/>
<path d="M19.75 36.4058H16.375C15.547 36.4058 14.875 37.3085 14.875 38.4208V46.9847H18.25V38.4208C18.25 37.3085 18.922 36.4058 19.75 36.4058Z" fill="#02275D"/>
<path d="M11.5 45.4737V4.52809C11.5 3.8994 11.7145 3.34929 12.0415 2.98256L9.871 2.54126C8.9575 2.33573 8.125 3.28481 8.125 4.52809V45.4737C8.125 46.586 8.797 47.4888 9.625 47.4888H13C12.172 47.4888 11.5 46.586 11.5 45.4737Z" fill="#02275D"/>
<path d="M27.6248 48.9998H9.62476C8.17726 48.9998 6.99976 47.418 6.99976 45.4735V4.52988C6.99976 3.49012 7.33876 2.51081 7.92826 1.83779C8.51776 1.16678 9.29175 0.874598 10.0553 1.04991L26.5388 4.40495C27.8273 4.6931 28.7498 6.15602 28.7498 7.88694V47.4885C28.7498 48.3227 28.2458 48.9998 27.6248 48.9998ZM9.62626 4.02612C9.50476 4.02612 9.42376 4.09665 9.38326 4.14299C9.33376 4.20143 9.24976 4.32636 9.24976 4.52988V45.4735C9.24976 45.7515 9.41776 45.9772 9.62476 45.9772H26.4998V7.88694C26.4998 7.63909 26.3678 7.42952 26.1863 7.38922L9.70276 4.03619C9.67576 4.03015 9.65026 4.02612 9.62626 4.02612Z" fill="#02275D"/>
<path d="M40.375 48.9996H27.625C27.004 48.9996 26.5 48.3225 26.5 47.4883V20.2853C26.5 19.8299 26.653 19.3987 26.9155 19.1125C27.178 18.8244 27.5215 18.7115 27.8545 18.8062L40.93 22.4857C42.154 22.8504 43 24.265 43 25.9314V45.4733C43 47.4178 41.8225 48.9996 40.375 48.9996ZM28.75 45.977H40.375C40.582 45.977 40.75 45.7513 40.75 45.4733V25.9314C40.75 25.6936 40.63 25.4921 40.4575 25.4398L28.75 22.1452V45.977Z" fill="#02275D"/>
<mask id="path-9-inside-1" fill="white">
<path d="M21.6252 48.4956H14.8752C14.2542 48.4956 13.7502 47.8185 13.7502 46.9843V38.4204C13.7502 36.4758 14.9277 34.894 16.3752 34.894H20.1252C21.5727 34.894 22.7502 36.4758 22.7502 38.4204V46.9843C22.7502 47.8185 22.2462 48.4956 21.6252 48.4956ZM16.0002 45.473H20.5002V38.4204C20.5002 38.1423 20.3322 37.9166 20.1252 37.9166H16.3752C16.1682 37.9166 16.0002 38.1423 16.0002 38.4204V45.473Z"/>
</mask>
<path d="M21.6252 48.4956H14.8752C14.2542 48.4956 13.7502 47.8185 13.7502 46.9843V38.4204C13.7502 36.4758 14.9277 34.894 16.3752 34.894H20.1252C21.5727 34.894 22.7502 36.4758 22.7502 38.4204V46.9843C22.7502 47.8185 22.2462 48.4956 21.6252 48.4956ZM16.0002 45.473H20.5002V38.4204C20.5002 38.1423 20.3322 37.9166 20.1252 37.9166H16.3752C16.1682 37.9166 16.0002 38.1423 16.0002 38.4204V45.473Z" fill="#02275D"/>
<path d="M16.0002 45.473H1.77802V59.6952H16.0002V45.473ZM20.5002 45.473V59.6952H34.7225V45.473H20.5002ZM21.6252 34.2733H14.8752V62.7178H21.6252V34.2733ZM14.8752 34.2733C20.0956 34.2733 23.6937 37.1497 25.4882 39.5603C27.2839 41.9726 27.9725 44.6432 27.9725 46.9843H-0.471978C-0.471978 50.1596 0.468598 53.5859 2.67151 56.5452C4.87324 59.5029 9.03393 62.7178 14.8752 62.7178V34.2733ZM27.9725 46.9843V38.4204H-0.471978V46.9843H27.9725ZM27.9725 38.4204C27.9725 40.2129 27.4487 42.378 25.9283 44.4204C24.4121 46.4572 21.1913 49.1163 16.3752 49.1163V20.6718C10.1116 20.6718 5.57836 24.1218 3.11157 27.4356C0.640588 30.755 -0.471978 34.6833 -0.471978 38.4204H27.9725ZM16.3752 49.1163H20.1252V20.6718H16.3752V49.1163ZM20.1252 49.1163C15.3091 49.1163 12.0884 46.4572 10.5722 44.4204C9.05184 42.378 8.52802 40.2129 8.52802 38.4204H36.9725C36.9725 34.6833 35.8599 30.755 33.3889 27.4356C30.9221 24.1218 26.3888 20.6718 20.1252 20.6718V49.1163ZM8.52802 38.4204V46.9843H36.9725V38.4204H8.52802ZM8.52802 46.9843C8.52802 44.6432 9.2166 41.9726 11.0123 39.5603C12.8067 37.1497 16.4049 34.2733 21.6252 34.2733V62.7178C27.4666 62.7178 31.6272 59.5029 33.829 56.5452C36.0319 53.5859 36.9725 50.1596 36.9725 46.9843H8.52802ZM16.0002 59.6952H20.5002V31.2508H16.0002V59.6952ZM34.7225 45.473V38.4204H6.27802V45.473H34.7225ZM34.7225 38.4204C34.7225 35.5231 33.8659 32.3487 31.7987 29.5718C29.7327 26.7964 25.7596 23.6944 20.1252 23.6944V52.1388C14.6979 52.1388 10.9122 49.1496 8.98201 46.5566C7.0506 43.962 6.27802 41.0396 6.27802 38.4204H34.7225ZM20.1252 23.6944H16.3752V52.1388H20.1252V23.6944ZM16.3752 23.6944C10.7409 23.6944 6.76774 26.7964 4.70176 29.5718C2.6346 32.3487 1.77802 35.5231 1.77802 38.4204H30.2225C30.2225 41.0396 29.4499 43.962 27.5185 46.5566C25.5882 49.1496 21.8026 52.1388 16.3752 52.1388V23.6944ZM1.77802 38.4204V45.473H30.2225V38.4204H1.77802Z" fill="#02275D" mask="url(#path-9-inside-1)"/>
<mask id="path-11-inside-2" fill="white">
<path d="M12.2512 9.70605H16.7512V12.7286H12.2512V9.70605Z"/>
</mask>
<path d="M12.2512 9.70605H16.7512V12.7286H12.2512V9.70605Z" fill="#02275D"/>
<path d="M12.2512 9.70605V-4.51617H-1.971V9.70605H12.2512ZM16.7512 9.70605H30.9734V-4.51617H16.7512V9.70605ZM16.7512 12.7286V26.9508H30.9734V12.7286H16.7512ZM12.2512 12.7286H-1.971V26.9508H12.2512V12.7286ZM12.2512 23.9283H16.7512V-4.51617H12.2512V23.9283ZM2.529 9.70605V12.7286H30.9734V9.70605H2.529ZM16.7512 -1.49361H12.2512V26.9508H16.7512V-1.49361ZM26.4734 12.7286V9.70605H-1.971V12.7286H26.4734Z" fill="#02275D" mask="url(#path-11-inside-2)"/>
<mask id="path-13-inside-3" fill="white">
<path d="M19.75 9.70605H24.25V12.7286H19.75V9.70605Z"/>
</mask>
<path d="M19.75 9.70605H24.25V12.7286H19.75V9.70605Z" fill="#02275D"/>
<path d="M19.75 9.70605V-4.51617H5.52778V9.70605H19.75ZM24.25 9.70605H38.4722V-4.51617H24.25V9.70605ZM24.25 12.7286V26.9508H38.4722V12.7286H24.25ZM19.75 12.7286H5.52778V26.9508H19.75V12.7286ZM19.75 23.9283H24.25V-4.51617H19.75V23.9283ZM10.0278 9.70605V12.7286H38.4722V9.70605H10.0278ZM24.25 -1.49361H19.75V26.9508H24.25V-1.49361ZM33.9722 12.7286V9.70605H5.52778V12.7286H33.9722Z" fill="#02275D" mask="url(#path-13-inside-3)"/>
<mask id="path-15-inside-4" fill="white">
<path d="M12.2512 15.7515H16.7512V18.774H12.2512V15.7515Z"/>
</mask>
<path d="M12.2512 15.7515H16.7512V18.774H12.2512V15.7515Z" fill="#02275D"/>
<path d="M12.2512 15.7515V1.52924H-1.971V15.7515H12.2512ZM16.7512 15.7515H30.9734V1.52924H16.7512V15.7515ZM16.7512 18.774V32.9962H30.9734V18.774H16.7512ZM12.2512 18.774H-1.971V32.9962H12.2512V18.774ZM12.2512 29.9737H16.7512V1.52924H12.2512V29.9737ZM2.529 15.7515V18.774H30.9734V15.7515H2.529ZM16.7512 4.5518H12.2512V32.9962H16.7512V4.5518ZM26.4734 18.774V15.7515H-1.971V18.774H26.4734Z" fill="#02275D" mask="url(#path-15-inside-4)"/>
<mask id="path-17-inside-5" fill="white">
<path d="M19.75 15.7515H24.25V18.774H19.75V15.7515Z"/>
</mask>
<path d="M19.75 15.7515H24.25V18.774H19.75V15.7515Z" fill="#02275D"/>
<path d="M19.75 15.7515V1.52924H5.52778V15.7515H19.75ZM24.25 15.7515H38.4722V1.52924H24.25V15.7515ZM24.25 18.774V32.9962H38.4722V18.774H24.25ZM19.75 18.774H5.52778V32.9962H19.75V18.774ZM19.75 29.9737H24.25V1.52924H19.75V29.9737ZM10.0278 15.7515V18.774H38.4722V15.7515H10.0278ZM24.25 4.5518H19.75V32.9962H24.25V4.5518ZM33.9722 18.774V15.7515H5.52778V18.774H33.9722Z" fill="#02275D" mask="url(#path-17-inside-5)"/>
<mask id="path-19-inside-6" fill="white">
<path d="M12.2512 21.7969H16.7512V24.8194H12.2512V21.7969Z"/>
</mask>
<path d="M12.2512 21.7969H16.7512V24.8194H12.2512V21.7969Z" fill="#02275D"/>
<path d="M12.2512 21.7969V7.57465H-1.971V21.7969H12.2512ZM16.7512 21.7969H30.9734V7.57465H16.7512V21.7969ZM16.7512 24.8194V39.0417H30.9734V24.8194H16.7512ZM12.2512 24.8194H-1.971V39.0417H12.2512V24.8194ZM12.2512 36.0191H16.7512V7.57465H12.2512V36.0191ZM2.529 21.7969V24.8194H30.9734V21.7969H2.529ZM16.7512 10.5972H12.2512V39.0417H16.7512V10.5972ZM26.4734 24.8194V21.7969H-1.971V24.8194H26.4734Z" fill="#02275D" mask="url(#path-19-inside-6)"/>
<mask id="path-21-inside-7" fill="white">
<path d="M19.75 21.7969H24.25V24.8194H19.75V21.7969Z"/>
</mask>
<path d="M19.75 21.7969H24.25V24.8194H19.75V21.7969Z" fill="#02275D"/>
<path d="M19.75 21.7969V7.57465H5.52778V21.7969H19.75ZM24.25 21.7969H38.4722V7.57465H24.25V21.7969ZM24.25 24.8194V39.0417H38.4722V24.8194H24.25ZM19.75 24.8194H5.52778V39.0417H19.75V24.8194ZM19.75 36.0191H24.25V7.57465H19.75V36.0191ZM10.0278 21.7969V24.8194H38.4722V21.7969H10.0278ZM24.25 10.5972H19.75V39.0417H24.25V10.5972ZM33.9722 24.8194V21.7969H5.52778V24.8194H33.9722Z" fill="#02275D" mask="url(#path-21-inside-7)"/>
<mask id="path-23-inside-8" fill="white">
<path d="M12.2512 27.8413H16.7512V30.8639H12.2512V27.8413Z"/>
</mask>
<path d="M12.2512 27.8413H16.7512V30.8639H12.2512V27.8413Z" fill="#02275D"/>
<path d="M12.2512 27.8413V13.6191H-1.971V27.8413H12.2512ZM16.7512 27.8413H30.9734V13.6191H16.7512V27.8413ZM16.7512 30.8639V45.0861H30.9734V30.8639H16.7512ZM12.2512 30.8639H-1.971V45.0861H12.2512V30.8639ZM12.2512 42.0635H16.7512V13.6191H12.2512V42.0635ZM2.529 27.8413V30.8639H30.9734V27.8413H2.529ZM16.7512 16.6417H12.2512V45.0861H16.7512V16.6417ZM26.4734 30.8639V27.8413H-1.971V30.8639H26.4734Z" fill="#02275D" mask="url(#path-23-inside-8)"/>
<mask id="path-25-inside-9" fill="white">
<path d="M19.75 27.8413H24.25V30.8639H19.75V27.8413Z"/>
</mask>
<path d="M19.75 27.8413H24.25V30.8639H19.75V27.8413Z" fill="#02275D"/>
<path d="M19.75 27.8413V13.6191H5.52778V27.8413H19.75ZM24.25 27.8413H38.4722V13.6191H24.25V27.8413ZM24.25 30.8639V45.0861H38.4722V30.8639H24.25ZM19.75 30.8639H5.52778V45.0861H19.75V30.8639ZM19.75 42.0635H24.25V13.6191H19.75V42.0635ZM10.0278 27.8413V30.8639H38.4722V27.8413H10.0278ZM24.25 16.6417H19.75V45.0861H24.25V16.6417ZM33.9722 30.8639V27.8413H5.52778V30.8639H33.9722Z" fill="#02275D" mask="url(#path-25-inside-9)"/>
<path d="M32.5007 27.8413H37.0007V30.8639H32.5007V27.8413Z" fill="white"/>
<path d="M32.5007 33.8872H37.0007V36.9098H32.5007V33.8872Z" fill="white"/>
<path d="M32.5007 39.9316H37.0007V42.9542H32.5007V39.9316Z" fill="white"/>
<path d="M1 47.4888C1 46.6542 1.67662 45.9775 2.51128 45.9775H47.4887C48.3234 45.9775 49 46.6542 49 47.4888C49 48.3235 48.3234 49.0001 47.4887 49.0001H2.51128C1.67663 49.0001 1 48.3235 1 47.4888Z" fill="#02275D"/>
</svg>
