<svg width="85" height="85" viewBox="0 0 85 85" fill="none" xmlns="http://www.w3.org/2000/svg">
<path opacity="0.1" d="M74.1955 73.8341C72.6014 77.3124 69.3628 79.6382 66.0078 81.1721C63.3216 82.392 60.4821 83.1932 57.5782 83.5506C57.0221 83.6204 56.4641 83.6745 55.9043 83.713C54.474 83.8116 53.039 83.8099 51.6088 83.7079C50.7486 83.6474 49.8913 83.5508 49.037 83.4179C46.0688 82.9601 43.1749 82.069 40.4382 80.7704C39.6484 80.3943 38.8746 79.9837 38.1167 79.5386C36.851 78.7968 35.6382 77.9581 34.488 77.0294C34.2335 76.8238 33.9823 76.6137 33.7342 76.3992L33.6322 76.311C33.4371 76.1409 33.2438 75.967 33.0476 75.7982C32.7214 75.5093 32.3751 75.2467 32.0117 75.0126C31.9871 74.9974 31.9625 74.9821 31.9373 74.9675C31.87 74.9263 31.8016 74.8876 31.732 74.8508C31.5886 74.7743 31.4415 74.7057 31.2915 74.6452C30.5982 74.3659 29.8558 74.2644 29.1032 74.2815C28.9784 74.2815 28.8535 74.2904 28.7281 74.2993C28.5528 74.312 28.377 74.331 28.2017 74.3552L28.1369 74.3647C27.5784 74.4482 27.0263 74.5736 26.4846 74.7397C25.6479 74.9936 24.8263 75.3109 23.9992 75.5971C23.6481 75.7196 23.2964 75.8363 22.9417 75.941L22.8637 75.9639C22.3592 76.1139 21.8457 76.2276 21.3266 76.304C20.1471 76.4635 18.9491 76.3615 17.809 76.0045L17.7693 75.9924L17.6961 75.9696L17.5959 75.9366C17.4278 75.8807 17.2612 75.8196 17.0959 75.7532L16.9957 75.7126C16.8357 75.6474 16.679 75.5774 16.5258 75.5025L16.4255 75.4543C16.2655 75.3756 16.1088 75.2925 15.9556 75.2049C15.9004 75.1744 15.8458 75.1414 15.7917 75.1103C15.6285 75.0139 15.4684 74.9128 15.3116 74.807C15.1451 74.6949 14.9823 74.5779 14.8231 74.4561C14.7494 74.4002 14.6766 74.3429 14.6046 74.2841C14.1894 73.9483 13.8006 73.5775 13.442 73.1754C13.4222 73.1545 13.4036 73.1329 13.385 73.112C13.2896 73.0028 13.196 72.8918 13.1053 72.7782C13.0717 72.7363 13.0381 72.6944 13.0051 72.6512C12.8975 72.5125 12.7936 72.3705 12.6936 72.2254C12.6786 72.2045 12.6642 72.1829 12.6498 72.162C12.2397 71.5623 11.8997 70.9124 11.6373 70.2264C11.6289 70.2055 11.6211 70.1839 11.6139 70.163C11.5339 69.9451 11.4608 69.7236 11.3948 69.4985C11.3678 69.4046 11.342 69.3082 11.3192 69.2142C11.3114 69.1863 11.3042 69.1578 11.2976 69.1298C10.9663 67.7508 10.9285 66.3173 10.9285 64.8919C10.9285 64.7257 10.9285 64.5596 10.9285 64.3938C10.9381 62.0883 10.9717 59.7434 11.2934 57.4696C11.2934 57.4538 11.2976 57.4379 11.3 57.4227C11.4076 56.6572 11.5541 55.8984 11.7387 55.1495C11.9319 54.3637 12.1788 53.5938 12.4775 52.8459C13.2176 51.0055 14.2937 49.3308 15.4887 47.7786C16.9291 45.9109 18.5796 44.1874 20.418 42.7652C20.682 42.5609 20.9497 42.3625 21.221 42.17L21.3464 42.083C21.3902 42.0519 21.4341 42.0196 21.4779 41.9923C21.5679 41.9288 21.6579 41.8692 21.7492 41.8089L21.8512 41.7416L22.0456 41.6147L22.1057 41.5785L22.2095 41.5151L22.3121 41.4516C22.4322 41.3767 22.5536 41.3035 22.6764 41.232C23.201 40.9228 23.738 40.6401 24.2873 40.3842C24.4494 40.3085 24.6124 40.2355 24.7765 40.1652C25.5213 39.8445 26.2864 39.5792 27.0662 39.3714C27.3543 39.2944 27.6441 39.2267 27.9358 39.1683C28.2799 39.0981 28.6258 39.0399 28.9736 38.9938C29.5269 38.9202 30.0833 38.8763 30.6409 38.8624C34.5612 38.7615 38.5213 40.1107 41.5936 42.6967C42.818 43.7273 43.9181 44.9476 45.2931 45.7377C46.4935 46.4256 47.8985 46.7106 49.1841 46.1692C50.2464 45.7218 50.9378 45.4997 52.131 45.5676C54.5999 45.7147 57.034 46.2529 59.3518 47.1643C59.4454 47.2005 59.539 47.2379 59.6321 47.2753C65.6765 49.7217 70.8735 54.5796 73.5731 60.8222C73.6443 60.9872 73.7137 61.1535 73.7814 61.321C75.3917 65.2968 75.9726 69.958 74.1955 73.8341Z" fill="#2196F3"/>
<path d="M54.5751 70.5575C65.8488 70.5575 74.9879 61.4184 74.9879 50.1448C74.9879 38.8711 65.8488 29.732 54.5751 29.732C43.3015 29.732 34.1624 38.8711 34.1624 50.1448C34.1624 61.4184 43.3015 70.5575 54.5751 70.5575Z" fill="#02275D"/>
<path d="M52.876 29.8224C63.3581 30.814 71.3664 39.6155 71.3664 50.1445C71.3664 60.6734 63.3581 69.475 52.876 70.4665C60.5948 71.1967 68.061 67.4909 72.1468 60.9015C76.2326 54.3121 76.2326 45.9768 72.1468 39.3875C68.061 32.7981 60.5948 29.0922 52.876 29.8224Z" fill="#7FACFA"/>
<path d="M46.0587 51.2791C45.8092 54.2843 43.6545 56.7111 44.0061 59.8184C44.3349 62.7329 45.004 63.1298 43.6999 67.3598C35.1938 61.9896 31.8681 51.2231 35.8636 41.9912C36.1711 44.3669 37.6669 46.4226 39.8328 47.446C42.1009 48.4213 46.3309 48.0357 46.0587 51.2791Z" fill="#D1E7FF"/>
<path d="M66.3123 66.8382C61.3247 70.3644 55.0138 71.4558 49.1316 69.8094C52.8626 66.4072 56.7297 65.534 61.6968 65.9083C63.2683 66.0229 64.8191 66.3353 66.3123 66.8382Z" fill="#E8EDFC"/>
<path d="M73.3771 58.0834C71.6382 58.528 69.999 59.2976 68.5461 60.3515C68.4295 60.4373 68.3084 60.5168 68.1832 60.5896C63.9646 63.4134 60.9934 61.8144 61.0387 59.1721C61.0841 56.5297 63.2388 54.0689 63.2388 50.8255C63.2388 47.5821 60.7439 46.1646 57.9768 45.6089C56.4589 45.3288 55.0868 44.5264 54.0984 43.3408L54.4953 38.5892C56.616 35.8788 60.2676 36.1056 63.5676 31.955C73.2106 36.7198 77.5018 48.1497 73.3771 58.0834Z" fill="#D1E7FF"/>
<path d="M44.2112 31.456C43.1206 32.5766 42.3628 33.9783 42.0225 35.5046C41.8827 36.0746 42.0507 36.6762 42.4657 37.0912C42.8808 37.5063 43.4824 37.6743 44.0524 37.5345C44.9996 37.3133 45.9013 36.9297 46.7174 36.4004C53.6011 29.9024 51.6845 31.7622 55.4609 27.9858C56.2196 27.2615 56.2501 26.06 55.5289 25.2982L54.2248 24.0621C53.4606 23.3472 52.2642 23.3775 51.5371 24.1301C50.5278 25.1281 51.8206 23.6992 44.2112 31.456Z" fill="#E8EDFC"/>
<path d="M39.832 12.3586C40.5655 11.6128 40.5655 10.4167 39.832 9.6709L38.5506 8.36675C37.7887 7.64564 36.5873 7.67606 35.8629 8.43479C32.0865 12.2225 33.9463 10.2946 27.4483 17.1783C26.9197 17.9906 26.536 18.8885 26.3142 19.8319C26.1744 20.4019 26.3425 21.0036 26.7575 21.4186C27.1725 21.8336 27.7742 22.0017 28.3442 21.8619C29.8728 21.5256 31.2782 20.7719 32.404 19.6845C40.0248 12.2338 38.698 13.4359 39.832 12.3586Z" fill="#E8EDFC"/>
<path d="M49.6532 20.7709L54.5749 38.7001C55.1897 40.9382 54.5528 43.334 52.9079 44.9714L52.5563 45.3343C52.3455 45.5443 52.0468 45.6408 51.7529 45.5936C51.459 45.5465 51.2054 45.3616 51.0707 45.0961L42.4747 27.9494C42.3613 27.9494 42.2706 28.2556 40.2066 30.1268C37.144 32.72 33.9412 35.1429 30.6126 37.3846C30.3083 37.6082 30.1693 37.9936 30.2611 38.3599L31.2817 42.4651C31.3608 42.7813 31.2707 43.116 31.0435 43.3497L30.1023 44.2796C29.9298 44.4534 29.6951 44.5512 29.4502 44.5512C29.2053 44.5512 28.9706 44.4534 28.7981 44.2796C23.4001 38.8816 28.8662 44.359 19.6577 35.1392C19.4839 34.9668 19.3861 34.732 19.3861 34.4872C19.3861 34.2423 19.4839 34.0076 19.6577 33.8351L20.5877 32.8938C20.8214 32.6666 21.156 32.5765 21.4722 32.6557L25.5775 33.6763C25.9438 33.768 26.3292 33.6291 26.5527 33.3248C30.227 28.2669 32.0869 25.3184 35.988 21.4286L18.7959 12.8553C18.5304 12.7206 18.3455 12.467 18.2984 12.1731C18.2512 11.8793 18.3477 11.5806 18.5577 11.3697L18.9206 11.0181C20.5534 9.36528 22.9477 8.71585 25.1919 9.31706C42.8262 14.1367 39.5829 13.2749 43.1211 14.2388L48.349 9.01087C50.9233 6.43659 54.711 4.08913 58.2832 4.93966C58.6141 5.01951 58.8725 5.27786 58.9523 5.60874C59.2699 6.9696 59.5874 10.8367 54.8811 15.543L49.6532 20.7709Z" fill="white"/>
<path d="M30.567 37.3867C33.9122 35.1685 37.1164 32.7445 40.161 30.1288L39.0269 27.9514C38.9135 27.9514 38.8228 28.2576 36.7588 30.1288C33.7143 32.7445 30.5101 35.1685 27.1648 37.3867C26.8605 37.6102 26.7216 37.9956 26.8133 38.362L27.8339 42.4672C27.8905 42.7243 27.8325 42.9933 27.6752 43.2043L28.7525 44.2817C28.925 44.4555 29.1597 44.5533 29.4046 44.5533C29.6494 44.5533 29.8842 44.4555 30.0566 44.2817L30.9979 43.3518C31.2251 43.118 31.3152 42.7834 31.2361 42.4672L30.2154 38.362C30.1237 37.9956 30.2626 37.6102 30.567 37.3867Z" fill="#E8EDFC"/>
<path d="M54.8808 15.545C59.5871 10.8388 59.2695 6.97166 58.952 5.61081C58.8722 5.27993 58.6138 5.02158 58.2829 4.94173C57.1907 4.68102 56.0524 4.68102 54.9602 4.94173C55.2512 5.03394 55.4741 5.26971 55.5499 5.56545C55.8674 6.9263 56.185 10.7934 51.4787 15.4997L46.2507 20.773L51.1725 38.7022C51.6405 40.4335 51.3694 42.2814 50.424 43.8054C50.7189 44.4064 50.7756 44.5085 51.0704 45.0982C51.2051 45.3636 51.4586 45.5486 51.7525 45.5957C52.0464 45.6428 52.3451 45.5464 52.556 45.3363L52.9076 44.9734C54.5525 43.336 55.1894 40.9403 54.5746 38.7022L49.6529 20.773L54.8808 15.545Z" fill="#E8EDFC"/>
<path d="M66.3139 66.8379C62.6679 69.483 58.2242 70.7961 53.7261 70.5576C50.426 70.3535 57.3323 71.2834 63.7737 66.2029C64.6338 66.3572 65.4824 66.5694 66.3139 66.8379Z" fill="#549414"/>
<path d="M56.3787 28.6883C56.8746 28.1436 57.1601 27.44 57.1839 26.7037C57.1839 25.1501 56.288 24.4923 55.0292 23.2336C54.0558 22.2728 52.5509 22.104 51.3889 22.8253L50.924 21.1129L55.7096 16.3499C60.7788 11.2807 60.4499 6.97138 60.087 5.36104C59.9031 4.5964 59.3007 4.00272 58.5334 3.83008C56.923 3.45584 52.6137 3.13831 47.5445 8.1848L42.7815 12.9705L41.0691 12.5055C41.782 11.3416 41.6139 9.84231 40.6609 8.86523L39.3567 7.56108C38.7797 7.00076 38.0035 6.69303 37.1993 6.70579C36.3951 6.71856 35.629 7.05077 35.07 7.62912L32.5184 10.1694L25.4874 8.25285C22.8562 7.53671 20.0431 8.28543 18.1161 10.2147L17.7532 10.5776C17.2956 11.0463 17.0877 11.7043 17.1928 12.3508C17.2979 12.9973 17.7037 13.5555 18.2862 13.855L25.8956 17.6654C25.5846 18.3177 25.3596 19.0077 25.2265 19.718C25.057 20.6496 25.3676 21.6039 26.0529 22.2572C26.7382 22.9106 27.7063 23.1752 28.6287 22.9614C30.0823 22.6295 31.4378 21.9614 32.5865 21.0108L34.0494 21.7933C30.806 25.1955 29.3204 27.4635 25.6688 32.5894L21.6883 31.5574C20.9897 31.3872 20.2527 31.5886 19.7378 32.0904L18.7965 33.0317C17.9934 33.8372 17.9934 35.1407 18.7965 35.9462L27.9369 45.0866C28.7424 45.8897 30.0459 45.8897 30.8514 45.0866L31.7813 44.1453C32.2973 43.6432 32.5088 42.9053 32.337 42.2061L31.3504 38.2369C35.1453 35.7215 38.7397 32.9158 42.1011 29.845L42.8269 31.2966C42.437 31.7623 42.0915 32.2635 41.7949 32.7935C33.3964 38.9605 30.6141 50.2536 35.1864 59.6163C39.7588 68.979 50.3756 73.7285 60.4031 70.897C70.4305 68.0656 76.9952 58.4645 75.9952 48.0931C74.9952 37.7217 66.717 29.5517 56.3333 28.6883H56.3787ZM61.7314 32.2605C59.2365 34.6761 56.9571 34.9822 55.0859 36.3885L53.725 31.376L54.2127 30.877C56.7869 30.8223 59.3453 31.2931 61.7314 32.2605ZM52.3075 24.9119C52.5882 24.5998 53.0671 24.5695 53.3848 24.8439C55.4375 26.8965 55.4715 26.3749 52.9993 28.8471L52.0467 25.1955L52.3075 24.9119ZM36.669 9.23946C36.9465 8.92387 37.4256 8.88857 37.7464 9.16008L39.0505 10.4529C39.2006 10.6082 39.2786 10.8193 39.2657 11.0349C39.2527 11.2504 39.15 11.4507 38.9825 11.5869L38.699 11.8478L35.07 10.8611L36.669 9.23946ZM28.2544 20.7387C28.0301 20.814 27.7829 20.7713 27.5967 20.6253C27.4466 20.4409 27.4036 20.1915 27.4833 19.9675C27.5902 19.526 27.7422 19.0965 27.9369 18.686L30.307 19.8768C29.6699 20.2654 28.978 20.556 28.2544 20.7387ZM41.6702 27.1573C37.8144 31.0018 34.968 32.8276 29.9101 36.4678C29.2184 36.9526 28.9016 37.8169 29.1163 38.6339L30.1143 42.6257L29.4112 43.3401L20.5543 34.4833L21.2574 33.7802L25.2492 34.7781C26.066 34.9893 26.9284 34.6733 27.4152 33.9843L30.8968 29.1079C35.569 22.5758 37.2587 22.5191 37.0433 21.2376C36.9834 20.8796 36.7558 20.5718 36.4309 20.4098L19.5677 11.9725C20.917 10.5114 22.9688 9.92516 24.8863 10.4529L42.5094 15.2612C43.0971 15.4185 43.7241 15.2499 44.1537 14.819L49.1549 9.82917C53.2601 5.71259 56.5261 5.75795 57.8756 6.03012C58.1478 7.36829 58.1932 10.6457 54.0766 14.7509L49.0868 19.752C48.6559 20.1816 48.4873 20.8086 48.6445 21.3964L53.4415 39.0081C53.9559 40.9277 53.3667 42.9744 51.9106 44.3268L43.4846 27.4635C43.3237 27.1364 43.0153 26.9066 42.6558 26.8459C42.2963 26.7853 41.9295 26.9011 41.6702 27.1573ZM45.2084 35.9575C44.7579 36.1757 44.2816 36.3357 43.7908 36.4338C43.6051 36.4862 43.4056 36.4342 43.2691 36.2978C43.1327 36.1613 43.0807 35.9618 43.1331 35.7761C43.3075 35.0034 43.6062 34.2642 44.0176 33.5874L45.2084 35.9575ZM44.9362 51.2784C44.6981 54.0795 42.4867 56.5744 42.8722 60.0559C43.1671 62.6529 43.6661 62.9704 43.031 65.6241C36.7654 60.9754 33.9478 52.9894 35.9092 45.4381C36.6677 46.8249 37.864 47.9215 39.3114 48.5567C41.8403 49.532 45.1063 49.1578 44.9362 51.2784ZM51.7405 69.2644C52.9448 68.4175 54.2881 67.788 55.7096 67.4045C58.2471 66.8605 60.866 66.8143 63.4211 67.2685C59.8339 69.1314 55.7488 69.8103 51.7518 69.2077L51.7405 69.2644ZM66.0975 65.6468C62.5362 64.5999 58.7686 64.4673 55.1426 65.2612C52.8378 65.8619 50.7031 66.9874 48.9054 68.5499C47.5648 68.1369 46.2752 67.5738 45.061 66.8715C45.7093 64.9875 45.8076 62.9578 45.3445 61.0199C45.0043 59.0466 44.9022 58.4683 46.0929 55.429C46.6669 54.1541 47.049 52.8013 47.227 51.4145C47.3966 49.8077 46.4666 48.2871 44.9589 47.7062C43.2692 46.9691 41.6248 46.9691 40.2413 46.4021C38.5685 45.5591 37.3946 43.9728 37.0773 42.1267C37.8838 40.3634 38.9503 38.7311 40.2413 37.2844C40.4681 37.0349 40.7289 36.8081 40.9671 36.5586C41.0744 37.0655 41.3265 37.5303 41.6928 37.8967C42.963 39.1782 44.6414 38.7359 46.229 37.9988L50.0394 45.6082C50.3372 46.1991 50.9002 46.6114 51.5534 46.7169C52.2066 46.8224 52.8708 46.6083 53.3395 46.1412C53.6813 45.809 54.0032 45.4569 54.3034 45.0866C55.3125 45.8479 56.4723 46.3853 57.7055 46.6629C59.7015 47.0938 62.0716 48.1825 62.0829 50.8248C62.0829 53.7507 59.9396 56.3136 59.8829 59.1487C59.8262 61.9838 62.151 63.5261 64.7933 63.1746C67.4356 62.823 69.0346 61.1673 71.0305 60.158C69.754 62.268 68.083 64.1123 66.1088 65.5901L66.0975 65.6468ZM72.5048 57.2095C70.8312 57.7072 69.2494 58.4731 67.8212 59.4776L67.6851 59.5683C66.7475 60.2659 65.6604 60.7357 64.5098 60.9405C63.217 61.1106 62.1283 60.5322 62.1623 59.2054C62.1623 56.9373 64.3624 54.2723 64.3624 50.8362C64.3624 47.6382 62.0943 45.3134 58.2045 44.4515C57.1645 44.2437 56.2004 43.7577 55.4148 43.0453C55.914 41.6883 56.0163 40.217 55.7096 38.804C57.5808 36.8421 60.6767 36.7514 63.8747 33.2472C72.3814 37.8879 76.0893 48.1455 72.5161 57.1528L72.5048 57.2095Z" fill="#02275D"/>
<path d="M23.107 49.7606C23.5551 49.4885 23.5551 49.0475 23.107 48.7754C22.659 48.5034 21.9326 48.5034 21.4845 48.7754C16.3085 51.925 16.5827 58.6751 27.3804 63.0249C27.5644 63.1031 27.7842 63.1444 28.0088 63.1428C28.5099 63.1405 28.95 62.9401 29.0942 62.6488C29.2385 62.3574 29.0532 62.043 28.6372 61.8733C19.1993 58.0508 18.868 52.3205 23.107 49.7606Z" fill="#02275D"/>
<path d="M24.1167 46.9724C24.743 46.9724 25.2508 46.4647 25.2508 45.8383C25.2508 45.212 24.743 44.7043 24.1167 44.7043C23.4904 44.7043 22.9827 45.212 22.9827 45.8383C22.9827 46.4647 23.4904 46.9724 24.1167 46.9724Z" fill="#02275D"/>
</svg>
