<svg width="85" height="85" viewBox="0 0 85 85" fill="none" xmlns="http://www.w3.org/2000/svg">
<path opacity="0.1" d="M74.472 70.4499C72.3563 74.3313 68.5944 76.6984 64.7965 78.1314C61.7565 79.2693 58.5985 79.9036 55.421 80.0146C54.8123 80.0374 54.2034 80.0418 53.5943 80.0278C52.038 79.9923 50.488 79.8396 48.9546 79.5707C48.0321 79.4099 47.117 79.2073 46.2092 78.9629C43.0545 78.1181 40.0292 76.7769 37.2199 74.9777C36.4092 74.4569 35.6197 73.8977 34.8515 73.3C33.5681 72.3035 32.3529 71.1999 31.2155 69.9979C30.9639 69.7318 30.7162 69.4609 30.4725 69.1852L30.3723 69.0718C30.1808 68.8533 29.9917 68.6306 29.7988 68.4135C29.4791 68.0429 29.1348 67.7008 28.7687 67.3901C28.7438 67.3698 28.719 67.3495 28.6934 67.3299C28.6255 67.2748 28.5559 67.2225 28.4849 67.1724C28.3386 67.0683 28.1875 66.973 28.0323 66.8868C27.315 66.4889 26.5245 66.2927 25.7095 66.2336C25.5746 66.2205 25.4388 66.2177 25.3023 66.2149C25.1115 66.2112 24.9194 66.2149 24.7273 66.2246L24.6562 66.2289C24.0435 66.2675 23.4328 66.3553 22.8288 66.4919C21.8963 66.6994 20.9728 66.9825 20.0469 67.2288C19.6538 67.3344 19.2606 67.4334 18.8656 67.518L18.7787 67.5364C18.2168 67.6581 17.6491 67.7364 17.0798 67.7709C15.7875 67.8326 14.5049 67.588 13.3136 67.0527L13.2722 67.0345L13.1957 67.0002L13.0912 66.9513C12.9159 66.8686 12.7428 66.7799 12.5718 66.6853L12.4682 66.6275C12.3026 66.5348 12.1413 66.4368 11.9843 66.3336L11.8815 66.2669C11.7175 66.1585 11.5577 66.0453 11.402 65.9272C11.3458 65.886 11.2906 65.8418 11.2357 65.7999C11.0703 65.6705 10.9088 65.536 10.7514 65.3964C10.5843 65.2484 10.4216 65.0951 10.2633 64.9366C10.1901 64.8638 10.118 64.7894 10.0468 64.7134C9.63631 64.279 9.25828 63.8065 8.91643 63.3008C8.89741 63.2743 8.87975 63.2472 8.86202 63.2209C8.77129 63.0838 8.68272 62.9447 8.59767 62.803C8.5661 62.7507 8.53454 62.6984 8.50376 62.6447C8.4032 62.4719 8.3071 62.2957 8.21547 62.1163C8.20163 62.0903 8.18851 62.0637 8.17532 62.0378C7.8002 61.2967 7.50651 60.5045 7.30064 59.6784C7.29394 59.6531 7.28795 59.6272 7.28254 59.6021C7.22076 59.34 7.16694 59.0746 7.1211 58.8056C7.10256 58.6935 7.0856 58.5785 7.07159 58.4667C7.06632 58.4334 7.06178 58.3994 7.05781 58.3662C6.85601 56.7262 6.97745 55.0535 7.13879 53.3943C7.15762 53.2008 7.17641 53.0075 7.19519 52.8145C7.46654 50.1317 7.76829 47.4057 8.3732 44.7927C8.375 44.7743 8.38133 44.7562 8.38565 44.7388C8.58862 43.859 8.83273 42.9911 9.11692 42.1388C9.41459 41.2444 9.76849 40.3742 10.1758 39.5349C11.1836 37.4704 12.5357 35.634 14.0023 33.9526C15.7697 31.9299 17.7478 30.097 19.8948 28.6347C20.2032 28.4245 20.5148 28.2217 20.8296 28.0261L20.975 27.9381C21.0258 27.9065 21.0768 27.8734 21.1273 27.8463C21.2317 27.7819 21.3357 27.7219 21.4411 27.6613L21.5589 27.5937L21.7833 27.4664L21.8523 27.4306L21.9716 27.3676L22.0897 27.3045C22.2278 27.23 22.3673 27.1575 22.5081 27.0872C23.1098 26.7823 23.7218 26.5097 24.3443 26.2695C24.5279 26.1984 24.7123 26.1306 24.8975 26.066C25.7383 25.7709 26.5949 25.5425 27.4608 25.3825C27.7807 25.3231 28.1016 25.2748 28.4233 25.2374C28.8029 25.1918 29.1832 25.1605 29.564 25.1433C30.1701 25.1157 30.7762 25.1232 31.3801 25.1655C35.6266 25.4599 39.7517 27.4464 42.7779 30.7794C43.9839 32.1077 45.0342 33.6438 46.4302 34.708C47.649 35.6349 49.1346 36.1141 50.5846 35.6191C51.7829 35.2099 52.5549 35.024 53.8362 35.2284C56.4867 35.6589 59.0552 36.5411 61.4558 37.8455C61.5529 37.8975 61.6498 37.9509 61.7461 38.0042C67.9987 41.4869 73.063 47.6877 75.2726 55.238C75.3309 55.4376 75.3871 55.6384 75.4412 55.8405C76.7306 60.6377 76.8306 66.1245 74.472 70.4499Z" fill="#71A1F7"/>
<g clip-path="url(#clip0)">
<rect x="10.4371" y="29.3817" width="7.12217" height="21.1487" transform="rotate(-44.6675 10.4371 29.3817)" fill="#02275D"/>
<rect x="31.9999" y="7.00682" width="7.12217" height="21.5922" transform="rotate(-44.6675 31.9999 7.00682)" fill="#02275D"/>
<rect x="11.8158" y="61.1963" width="31.5972" height="5.67459" fill="#D1E7FF"/>
<rect x="11.8158" y="54.6189" width="29.7916" height="5.67459" fill="#D1E7FF"/>
<path d="M24.5547 24.4849C24.0517 23.9819 23.2341 23.9819 22.7312 24.4849C22.227 24.9892 22.227 25.8055 22.7312 26.3085C23.2342 26.8128 24.0519 26.8128 24.5547 26.3085C25.0588 25.8055 25.0588 24.9892 24.5547 24.4849Z" fill="#02275D"/>
<path d="M42.0199 59.7413C42.5885 58.9711 42.8959 58.0432 42.8959 57.0675C42.8959 54.5787 40.8711 52.5538 38.3821 52.5538H16.4583C15.2521 52.5538 14.1186 53.0232 13.2665 53.8756C12.414 54.7278 11.9446 55.8613 11.9446 57.0675C11.9446 58.0669 12.2716 58.9911 12.8235 59.7397C10.7699 60.8195 9.36536 62.9732 9.36536 65.4501V66.7397C9.36536 67.452 9.94288 68.0294 10.655 68.0294H44.1854C44.8976 68.0294 45.4751 67.452 45.4751 66.7397V65.4501C45.4751 62.9744 44.0719 60.8215 42.0199 59.7413ZM15.0902 55.6992C15.4554 55.3339 15.9413 55.1329 16.4583 55.1329H38.3821C39.4488 55.1329 40.3165 56.0007 40.3165 57.0673C40.3165 57.5844 40.1153 58.0702 39.7501 58.4355C39.385 58.8007 38.899 59.0018 38.382 59.0018H16.4583C15.3916 59.0018 14.5239 58.134 14.5239 57.0674C14.5239 56.5504 14.725 56.0644 15.0902 55.6992ZM11.9446 65.4501C11.9446 63.3168 13.6802 61.5811 15.8135 61.5811H16.4583H38.3821H39.027C41.1602 61.5811 42.8959 63.3168 42.8959 65.4501H11.9446Z" fill="#02275D"/>
<path d="M74.1965 56.1826C73.7585 55.5038 73.236 54.9036 72.6431 54.3985L66.6171 49.1427C66.5701 49.072 66.5157 49.005 66.4534 48.9427C66.3487 48.8381 66.23 48.7565 66.1039 48.6953L62.4597 45.5169L45.5919 30.8028C46.2824 30.081 46.6626 29.1371 46.6626 28.1333C46.6626 27.0992 46.2601 26.1275 45.5285 25.396C45.2094 25.0773 44.8468 24.8267 44.4592 24.6432L46.0197 23.0827C46.4559 23.1986 46.9041 23.2579 47.3526 23.2579C48.6734 23.2578 49.9943 22.7551 50.9997 21.7497C51.9744 20.775 52.5112 19.4796 52.5112 18.1018C52.5112 16.724 51.9744 15.4285 50.9998 14.4539L40.0571 3.51151C39.0825 2.5369 37.7869 2.00014 36.4088 2.00014C35.0313 2.00014 33.736 2.5369 32.7616 3.51151C31.4146 4.85845 30.9712 6.77092 31.4285 8.49161L15.8589 24.0611C15.4286 23.9467 14.981 23.8864 14.5237 23.8864C13.1453 23.8864 11.8503 24.4228 10.8765 25.3965C8.86507 27.4079 8.86507 30.6807 10.8765 32.6922L21.819 43.6349C22.8248 44.6406 24.1458 45.1434 25.4669 45.1434C26.788 45.1434 28.109 44.6406 29.1149 43.6349C30.4618 42.2878 30.9052 40.3755 30.4479 38.6548L32.0052 37.0974C32.1923 37.4881 32.4462 37.8487 32.7617 38.1641C33.4924 38.8948 34.4639 39.2973 35.4977 39.2973C36.5005 39.2973 37.444 38.9177 38.1669 38.228L56.1329 58.8699C56.1824 58.9472 56.2402 59.0209 56.3078 59.0885C56.3308 59.1115 56.3553 59.1326 56.3797 59.1535L61.7333 65.3045C61.8664 65.4615 62.0087 65.6161 62.1563 65.7637C63.6267 67.2336 65.5688 68.0312 67.6078 68.0312C67.9672 68.0312 68.33 68.0065 68.6933 67.9562C71.1217 67.6201 73.2204 66.1674 74.451 63.97C75.7991 61.5618 75.6987 58.5044 74.1965 56.1826ZM34.5855 5.33538C35.0729 4.84801 35.7206 4.5795 36.4089 4.5795C37.0981 4.5795 37.7462 4.84801 38.2334 5.33538L49.1761 16.2779C49.6635 16.7653 49.9318 17.4131 49.9318 18.1019C49.9318 18.7907 49.6635 19.4385 49.176 19.9259C48.1707 20.9315 46.5346 20.9315 45.5293 19.9259L34.5862 8.98285L34.5855 8.98221C33.58 7.97677 33.58 6.34081 34.5855 5.33538ZM27.291 41.811C26.2853 42.8167 24.6486 42.8168 23.6429 41.811L12.7003 30.8685C11.6945 29.8626 11.6945 28.2263 12.7003 27.2203C13.1868 26.7337 13.8345 26.4658 14.5237 26.4658C15.2127 26.4658 15.86 26.7336 16.3464 27.2198L27.2909 38.1643C28.2966 39.1696 28.2966 40.8057 27.291 41.811ZM32.7208 32.7342L29.1147 36.3404L18.171 25.3967L32.7616 10.8059L43.7051 21.7497L40.0925 25.3624C40.0807 25.3735 40.0693 25.3844 40.0569 25.3966L32.7653 32.6883C32.7502 32.7032 32.7356 32.7186 32.7208 32.7342ZM37.3257 35.4246C37.3231 35.4272 37.3207 35.4297 37.3181 35.4323L36.4099 36.3404C36.1663 36.5839 35.8425 36.7181 35.4976 36.7181C35.1529 36.7181 34.8289 36.5839 34.5854 36.3403C34.3415 36.0966 34.2073 35.7723 34.2073 35.4274C34.2073 35.0897 34.3361 34.7721 34.5699 34.5324L41.8955 27.2069C42.3975 26.7187 43.2092 26.7247 43.7054 27.2203C43.9491 27.4641 44.0834 27.7883 44.0834 28.1333C44.0834 28.478 43.9495 28.8014 43.7053 29.045L42.8024 29.9479C42.7962 29.9539 42.79 29.9601 42.7839 29.9663L37.3257 35.4246ZM39.9964 36.4016L43.7656 32.6324L59.7244 46.5525L53.901 52.3761L39.9964 36.4016ZM55.5983 54.3263L61.6726 48.2519L63.6209 49.9513L57.2956 56.2767L55.5983 54.3263ZM72.2006 62.71C71.3682 64.1961 69.9611 65.1769 68.3398 65.4013C66.7223 65.6252 65.133 65.0924 63.9798 63.9397C63.8806 63.8407 63.7857 63.7374 63.6972 63.6327C63.6931 63.6278 63.689 63.6228 63.6847 63.6181L58.9929 58.227L65.5691 51.6506L70.9535 56.3472C70.9575 56.3509 70.9616 56.3543 70.9659 56.358C71.3689 56.7006 71.7265 57.1122 72.03 57.5824C73.0052 59.0894 73.0736 61.1503 72.2006 62.71Z" fill="#02275D"/>
<path d="M33.6738 15.3657C33.1701 14.8621 32.3537 14.8621 31.8499 15.3657L26.3781 20.8376C25.8745 21.3412 25.8745 22.1578 26.3781 22.6613C26.63 22.9132 26.96 23.0391 27.29 23.0391C27.62 23.0391 27.9501 22.9131 28.2019 22.6613L33.6738 17.1895C34.1774 16.686 34.1774 15.8695 33.6738 15.3657Z" fill="#02275D"/>
</g>
<defs>
<clipPath id="clip0">
<rect width="66.0315" height="66.0315" fill="white" transform="translate(9.36536 2)"/>
</clipPath>
</defs>
</svg>
